<?xml version="1.0" encoding="utf-8"?>
<!-- Generator: Adobe Illustrator 23.0.3, SVG Export Plug-In . SVG Version: 6.00 Build 0)  -->
<svg version="1.1" id="Layer_1" xmlns="http://www.w3.org/2000/svg" xmlns:xlink="http://www.w3.org/1999/xlink" x="0px" y="0px"
	 viewBox="0 0 1366 768" style="enable-background:new 0 0 1366 768;" xml:space="preserve">
<style type="text/css">
	.st0{fill:#FF4500;}
</style>
<g>
	<path class="st0" d="M882.9,247.9c0,0-150.7-203.5-361.8-37.7c0,0-173.4,173.4,0,346.7c0,0,124.4,139.4,297.7,26.4l90.5,22.6
		l-45.2-60.3l15.1-22.6h150.7c0,0-75.4,218.6-331.6,233.7c0,0-286.4,22.6-384.4-309c0,0-45.2-339.2,293.9-429.6
		c0,0,278.9-67.8,422.1,226.1L882.9,247.9z"/>
	<circle cx="555" cy="394.8" r="49"/>
	<circle cx="683.2" cy="394.8" r="49"/>
	<circle cx="811.3" cy="394.8" r="49"/>
</g>
</svg>
